<?xml version='1.0' encoding='utf-8'?>
<mlt root="/home/danysk" LC_NUMERIC="en_US.UTF-8" version="0.9.8" producer="main bin" title="Anonymous Submission">
 <profile description="HD 1080p 25 fps" height="1080" display_aspect_num="16" width="1920" sample_aspect_den="1" display_aspect_den="9" sample_aspect_num="1" frame_rate_num="25" progressive="1" colorspace="709" frame_rate_den="1"/>
 <producer out="1499" in="0" id="1" title="Anonymous Submission">
  <property name="mlt_type">mlt_producer</property>
  <property name="length">00:01:00:00</property>
  <property name="eof">pause</property>
  <property name="resource">Dropbox/Missioni e meeting/201509 - Boston/slides/video/PRIMA-60s-accel.mkv</property>
  <property name="meta.media.nb_streams">2</property>
  <property name="meta.media.0.stream.type">video</property>
  <property name="meta.media.0.stream.frame_rate">60</property>
  <property name="meta.media.0.stream.sample_aspect_ratio">1</property>
  <property name="meta.media.0.codec.width">1920</property>
  <property name="meta.media.0.codec.height">1080</property>
  <property name="meta.media.0.codec.frame_rate">60</property>
  <property name="meta.media.0.codec.pix_fmt">yuv420p</property>
  <property name="meta.media.0.codec.sample_aspect_ratio">1</property>
  <property name="meta.media.0.codec.colorspace">709</property>
  <property name="meta.media.0.codec.color_trc">1</property>
  <property name="meta.media.0.codec.name">h264</property>
  <property name="meta.media.0.codec.long_name">H.264 / AVC / MPEG-4 AVC / MPEG-4 part 10</property>
  <property name="meta.media.0.codec.bit_rate">0</property>
  <property name="meta.attr.0.stream.DURATION.markup">00:00:59.987000000</property>
  <property name="meta.media.1.stream.type">audio</property>
  <property name="meta.media.1.codec.sample_fmt">fltp</property>
  <property name="meta.media.1.codec.sample_rate">48000</property>
  <property name="meta.media.1.codec.channels">2</property>
  <property name="meta.media.1.codec.name">vorbis</property>
  <property name="meta.media.1.codec.long_name">Vorbis</property>
  <property name="meta.media.1.codec.bit_rate">0</property>
  <property name="meta.attr.1.stream.DURATION.markup">00:00:59.987000000</property>
  <property name="meta.attr.ENCODER.markup">Lavf56.40.101</property>
  <property name="seekable">1</property>
  <property name="meta.media.sample_aspect_num">1</property>
  <property name="meta.media.sample_aspect_den">1</property>
  <property name="aspect_ratio">1</property>
  <property name="audio_index">1</property>
  <property name="video_index">0</property>
  <property name="mute_on_pause">1</property>
  <property name="mlt_service">avformat-novalidate</property>
  <property name="meta.media.frame_rate_num">60</property>
  <property name="meta.media.frame_rate_den">1</property>
  <property name="meta.media.colorspace">709</property>
  <property name="meta.media.color_trc">1</property>
  <property name="meta.media.width">1920</property>
  <property name="meta.media.height">1080</property>
  <property name="meta.media.top_field_first">0</property>
  <property name="meta.media.progressive">1</property>
  <property name="kdenlive:file_size">8999617</property>
  <property name="kdenlive:file_hash">71f8b29770ac7e1c5ddc6ad3d116527f</property>
  <property name="global_feed">1</property>
 </producer>
 <producer out="1442" in="0" id="2" title="Anonymous Submission">
  <property name="mlt_type">mlt_producer</property>
  <property name="length">00:00:57:18</property>
  <property name="eof">pause</property>
  <property name="resource">Dropbox/Missioni e meeting/201509 - Boston/slides/video/PRIMA-DemoAR.mp4</property>
  <property name="meta.media.nb_streams">2</property>
  <property name="meta.media.0.stream.type">video</property>
  <property name="meta.media.0.stream.frame_rate">29.97</property>
  <property name="meta.media.0.stream.sample_aspect_ratio">0</property>
  <property name="meta.media.0.codec.width">854</property>
  <property name="meta.media.0.codec.height">480</property>
  <property name="meta.media.0.codec.frame_rate">29.97</property>
  <property name="meta.media.0.codec.pix_fmt">yuv420p</property>
  <property name="meta.media.0.codec.sample_aspect_ratio">0</property>
  <property name="meta.media.0.codec.colorspace">601</property>
  <property name="meta.media.0.codec.name">h264</property>
  <property name="meta.media.0.codec.long_name">H.264 / AVC / MPEG-4 AVC / MPEG-4 part 10</property>
  <property name="meta.media.0.codec.bit_rate">1404369</property>
  <property name="meta.attr.0.stream.creation_time.markup">2015-09-16 15:34:43</property>
  <property name="meta.attr.0.stream.handler_name.markup">VideoHandler</property>
  <property name="meta.attr.0.stream.encoder.markup">AVC Coding</property>
  <property name="meta.media.1.stream.type">audio</property>
  <property name="meta.media.1.codec.sample_fmt">fltp</property>
  <property name="meta.media.1.codec.sample_rate">48000</property>
  <property name="meta.media.1.codec.channels">2</property>
  <property name="meta.media.1.codec.name">aac</property>
  <property name="meta.media.1.codec.long_name">AAC (Advanced Audio Coding)</property>
  <property name="meta.media.1.codec.bit_rate">2250</property>
  <property name="meta.attr.1.stream.creation_time.markup">2015-09-16 15:34:43</property>
  <property name="meta.attr.1.stream.handler_name.markup">SoundHandler</property>
  <property name="meta.attr.major_brand.markup">mp42</property>
  <property name="meta.attr.minor_version.markup">0</property>
  <property name="meta.attr.compatible_brands.markup">mp41isom</property>
  <property name="meta.attr.creation_time.markup">2015-09-16 15:34:43</property>
  <property name="seekable">1</property>
  <property name="meta.media.sample_aspect_num">1</property>
  <property name="meta.media.sample_aspect_den">1</property>
  <property name="aspect_ratio">1</property>
  <property name="audio_index">1</property>
  <property name="video_index">0</property>
  <property name="mute_on_pause">1</property>
  <property name="mlt_service">avformat-novalidate</property>
  <property name="meta.media.frame_rate_num">2997</property>
  <property name="meta.media.frame_rate_den">100</property>
  <property name="meta.media.colorspace">601</property>
  <property name="meta.media.color_trc">2</property>
  <property name="meta.media.width">854</property>
  <property name="meta.media.height">480</property>
  <property name="meta.media.top_field_first">0</property>
  <property name="meta.media.progressive">1</property>
  <property name="kdenlive:file_size">10165966</property>
  <property name="kdenlive:file_hash">d597efcf74243ba3bbfaa10bd7139387</property>
  <property name="global_feed">1</property>
 </producer>
 <producer out="1443" in="0" id="3">
  <property name="mlt_type">producer</property>
  <property name="length">1444</property>
  <property name="eof">pause</property>
  <property name="resource">0xff8080ff</property>
  <property name="aspect_ratio">1</property>
  <property name="mlt_service">color</property>
  <property name="kdenlive:clipname">Color Clip</property>
  <property name="kdenlive:file_hash">17fc70539c5356a67cd8cc241da1f3e2</property>
 </producer>
 <playlist id="main bin" kdenlive:customeffects="&lt;customeffects/>&#xa;">
  <property name="kdenlive:docproperties.documentid">1442483680486</property>
  <property name="kdenlive:docproperties.enableproxy">0</property>
  <property name="kdenlive:docproperties.generateimageproxy">0</property>
  <property name="kdenlive:docproperties.generateproxy">0</property>
  <property name="kdenlive:docproperties.kdenliveversion">15.08.0</property>
  <property name="kdenlive:docproperties.position">875</property>
  <property name="kdenlive:docproperties.profile">atsc_1080p_25</property>
  <property name="kdenlive:docproperties.projectfolder">kdenlive</property>
  <property name="kdenlive:docproperties.proxyextension">ts</property>
  <property name="kdenlive:docproperties.proxyimageminsize">2000</property>
  <property name="kdenlive:docproperties.proxyminsize">1000</property>
  <property name="kdenlive:docproperties.proxyparams">-f mpegts -acodec libmp3lame -ac 2 -ab 128k -vcodec mpeg2video -g 5 -s 640x480 -qscale 7</property>
  <property name="kdenlive:docproperties.version">0.91</property>
  <property name="kdenlive:docproperties.verticalzoom">1</property>
  <property name="kdenlive:docproperties.zonein">0</property>
  <property name="kdenlive:docproperties.zoneout">100</property>
  <property name="kdenlive:docproperties.zoom">4</property>
  <property name="kdenlive:documentnotes"/>
  <property name="kdenlive:clipgroups">&lt;groups/>
</property>
  <property name="xml_retain">1</property>
  <entry out="1499" in="0" producer="1"/>
  <entry out="1442" in="0" producer="2"/>
  <entry out="1249" in="0" producer="3"/>
 </playlist>
 <producer out="500" in="0" id="black">
  <property name="mlt_type">producer</property>
  <property name="length">15000</property>
  <property name="eof">pause</property>
  <property name="resource">black</property>
  <property name="aspect_ratio">0</property>
  <property name="mlt_service">colour</property>
 </producer>
 <playlist id="black_track">
  <entry out="1712" in="0" producer="black"/>
 </playlist>
 <playlist id="playlist0">
  <property name="kdenlive:track_name">Audio 2</property>
  <property name="kdenlive:audio_track">1</property>
 </playlist>
 <playlist id="playlist1">
  <property name="kdenlive:track_name">Audio 1</property>
  <property name="kdenlive:audio_track">1</property>
 </playlist>
 <playlist id="playlist2">
  <property name="kdenlive:track_name">Video 3</property>
 </playlist>
 <producer out="1499" in="0" id="1_playlist3" title="Anonymous Submission">
  <property name="mlt_type">producer</property>
  <property name="length">00:01:00:00</property>
  <property name="eof">pause</property>
  <property name="resource">Dropbox/Missioni e meeting/201509 - Boston/slides/video/PRIMA-60s-accel.mkv</property>
  <property name="audio_index">1</property>
  <property name="video_index">0</property>
  <property name="mute_on_pause">1</property>
  <property name="mlt_service">avformat-novalidate</property>
  <property name="seekable">1</property>
  <property name="aspect_ratio">1</property>
  <property name="kdenlive:file_size">8999617</property>
  <property name="kdenlive:file_hash">71f8b29770ac7e1c5ddc6ad3d116527f</property>
  <property name="global_feed">1</property>
  <property name="xml">was here</property>
  <property name="meta.media.nb_streams">2</property>
  <property name="meta.media.0.stream.type">video</property>
  <property name="meta.media.0.stream.frame_rate">60</property>
  <property name="meta.media.0.stream.sample_aspect_ratio">1</property>
  <property name="meta.media.0.codec.width">1920</property>
  <property name="meta.media.0.codec.height">1080</property>
  <property name="meta.media.0.codec.frame_rate">60</property>
  <property name="meta.media.0.codec.pix_fmt">yuv420p</property>
  <property name="meta.media.0.codec.sample_aspect_ratio">1</property>
  <property name="meta.media.0.codec.colorspace">709</property>
  <property name="meta.media.0.codec.color_trc">1</property>
  <property name="meta.media.0.codec.name">h264</property>
  <property name="meta.media.0.codec.long_name">H.264 / AVC / MPEG-4 AVC / MPEG-4 part 10</property>
  <property name="meta.media.0.codec.bit_rate">0</property>
  <property name="meta.attr.0.stream.DURATION.markup">00:00:59.987000000</property>
  <property name="meta.media.1.stream.type">audio</property>
  <property name="meta.media.1.codec.sample_fmt">fltp</property>
  <property name="meta.media.1.codec.sample_rate">48000</property>
  <property name="meta.media.1.codec.channels">2</property>
  <property name="meta.media.1.codec.name">vorbis</property>
  <property name="meta.media.1.codec.long_name">Vorbis</property>
  <property name="meta.media.1.codec.bit_rate">0</property>
  <property name="meta.attr.1.stream.DURATION.markup">00:00:59.987000000</property>
  <property name="meta.attr.ENCODER.markup">Lavf56.40.101</property>
  <property name="meta.media.sample_aspect_num">1</property>
  <property name="meta.media.sample_aspect_den">1</property>
  <property name="meta.media.frame_rate_num">60</property>
  <property name="meta.media.frame_rate_den">1</property>
  <property name="meta.media.colorspace">709</property>
  <property name="meta.media.color_trc">1</property>
  <property name="meta.media.width">1920</property>
  <property name="meta.media.height">1080</property>
  <property name="meta.media.top_field_first">0</property>
  <property name="meta.media.progressive">1</property>
 </producer>
 <playlist id="playlist3">
  <property name="kdenlive:track_name">Video 2</property>
  <entry out="1495" in="0" producer="1_playlist3"/>
 </playlist>
 <producer out="1689" in="0" id="2_playlist4" title="Anonymous Submission">
  <property name="mlt_type">producer</property>
  <property name="length">1690</property>
  <property name="eof">pause</property>
  <property name="resource">Dropbox/Missioni e meeting/201509 - Boston/slides/video/PRIMA-DemoAR.mp4</property>
  <property name="audio_index">1</property>
  <property name="video_index">0</property>
  <property name="mute_on_pause">1</property>
  <property name="mlt_service">avformat-novalidate</property>
  <property name="seekable">1</property>
  <property name="aspect_ratio">1</property>
  <property name="kdenlive:file_size">10165966</property>
  <property name="kdenlive:file_hash">d597efcf74243ba3bbfaa10bd7139387</property>
  <property name="global_feed">1</property>
  <property name="xml">was here</property>
  <property name="meta.media.nb_streams">2</property>
  <property name="meta.media.0.stream.type">video</property>
  <property name="meta.media.0.stream.frame_rate">29.97</property>
  <property name="meta.media.0.stream.sample_aspect_ratio">0</property>
  <property name="meta.media.0.codec.width">854</property>
  <property name="meta.media.0.codec.height">480</property>
  <property name="meta.media.0.codec.frame_rate">29.97</property>
  <property name="meta.media.0.codec.pix_fmt">yuv420p</property>
  <property name="meta.media.0.codec.sample_aspect_ratio">0</property>
  <property name="meta.media.0.codec.colorspace">601</property>
  <property name="meta.media.0.codec.name">h264</property>
  <property name="meta.media.0.codec.long_name">H.264 / AVC / MPEG-4 AVC / MPEG-4 part 10</property>
  <property name="meta.media.0.codec.bit_rate">1404369</property>
  <property name="meta.attr.0.stream.creation_time.markup">2015-09-16 15:34:43</property>
  <property name="meta.attr.0.stream.handler_name.markup">VideoHandler</property>
  <property name="meta.attr.0.stream.encoder.markup">AVC Coding</property>
  <property name="meta.media.1.stream.type">audio</property>
  <property name="meta.media.1.codec.sample_fmt">fltp</property>
  <property name="meta.media.1.codec.sample_rate">48000</property>
  <property name="meta.media.1.codec.channels">2</property>
  <property name="meta.media.1.codec.name">aac</property>
  <property name="meta.media.1.codec.long_name">AAC (Advanced Audio Coding)</property>
  <property name="meta.media.1.codec.bit_rate">2250</property>
  <property name="meta.attr.1.stream.creation_time.markup">2015-09-16 15:34:43</property>
  <property name="meta.attr.1.stream.handler_name.markup">SoundHandler</property>
  <property name="meta.attr.major_brand.markup">mp42</property>
  <property name="meta.attr.minor_version.markup">0</property>
  <property name="meta.attr.compatible_brands.markup">mp41isom</property>
  <property name="meta.attr.creation_time.markup">2015-09-16 15:34:43</property>
  <property name="meta.media.sample_aspect_num">1</property>
  <property name="meta.media.sample_aspect_den">1</property>
  <property name="meta.media.frame_rate_num">2997</property>
  <property name="meta.media.frame_rate_den">100</property>
  <property name="meta.media.colorspace">601</property>
  <property name="meta.media.color_trc">2</property>
  <property name="meta.media.width">854</property>
  <property name="meta.media.height">480</property>
  <property name="meta.media.top_field_first">0</property>
  <property name="meta.media.progressive">1</property>
 </producer>
 <playlist id="playlist4">
  <property name="kdenlive:track_name">Video 1</property>
  <entry out="209" in="0" producer="2_playlist4">
   <filter id="crop">
    <property name="track">0</property>
    <property name="mlt_type">filter</property>
    <property name="mlt_service">crop</property>
    <property name="kdenlive_id">crop</property>
    <property name="tag">crop</property>
    <property name="kdenlive_ix">1</property>
    <property name="top">68</property>
    <property name="left">70</property>
    <property name="bottom">9</property>
    <property name="right">70</property>
    <property name="center">0</property>
    <property name="center_bias">986</property>
    <property name="use_profile">0</property>
    <property name="kdenlive_info"/>
   </filter>
   <filter out="1442" id="pan_zoom">
    <property name="track">0</property>
    <property name="background">colour:0x00000000</property>
    <property name="mlt_type">filter</property>
    <property name="mlt_service">affine</property>
    <property name="kdenlive_id">pan_zoom</property>
    <property name="tag">affine</property>
    <property name="kdenlive_ix">2</property>
    <property name="transition.geometry">0/594:864x486:100</property>
    <property name="transition.distort">0</property>
    <property name="kdenlive_info"/>
   </filter>
  </entry>
  <entry out="274" in="195" producer="2_playlist4">
   <filter id="filter0">
    <property name="track">0</property>
    <property name="mlt_type">filter</property>
    <property name="mlt_service">crop</property>
    <property name="kdenlive_id">crop</property>
    <property name="tag">crop</property>
    <property name="kdenlive_ix">1</property>
    <property name="top">68</property>
    <property name="left">70</property>
    <property name="bottom">9</property>
    <property name="right">70</property>
    <property name="center">0</property>
    <property name="center_bias">986</property>
    <property name="use_profile">0</property>
    <property name="kdenlive_info"/>
   </filter>
   <filter out="274" in="195" id="filter1">
    <property name="track">0</property>
    <property name="background">colour:0x00000000</property>
    <property name="mlt_type">filter</property>
    <property name="mlt_service">affine</property>
    <property name="kdenlive_id">pan_zoom</property>
    <property name="tag">affine</property>
    <property name="kdenlive_ix">2</property>
    <property name="transition.geometry">0/594:864x486:100</property>
    <property name="transition.distort">0</property>
    <property name="kdenlive_info"/>
   </filter>
  </entry>
  <entry out="351" in="285" producer="2_playlist4">
   <filter id="filter2">
    <property name="track">0</property>
    <property name="mlt_type">filter</property>
    <property name="mlt_service">crop</property>
    <property name="kdenlive_id">crop</property>
    <property name="tag">crop</property>
    <property name="kdenlive_ix">1</property>
    <property name="top">68</property>
    <property name="left">70</property>
    <property name="bottom">9</property>
    <property name="right">70</property>
    <property name="center">0</property>
    <property name="center_bias">986</property>
    <property name="use_profile">0</property>
    <property name="kdenlive_info"/>
   </filter>
   <filter out="1442" in="195" id="filter3">
    <property name="track">0</property>
    <property name="background">colour:0x00000000</property>
    <property name="mlt_type">filter</property>
    <property name="mlt_service">affine</property>
    <property name="kdenlive_id">pan_zoom</property>
    <property name="tag">affine</property>
    <property name="kdenlive_ix">2</property>
    <property name="transition.geometry">0/594:864x486:100</property>
    <property name="transition.distort">0</property>
    <property name="kdenlive_info"/>
   </filter>
  </entry>
  <entry out="635" in="363" producer="2_playlist4">
   <filter id="filter4">
    <property name="track">0</property>
    <property name="mlt_type">filter</property>
    <property name="mlt_service">crop</property>
    <property name="kdenlive_id">crop</property>
    <property name="tag">crop</property>
    <property name="kdenlive_ix">1</property>
    <property name="top">68</property>
    <property name="left">70</property>
    <property name="bottom">9</property>
    <property name="right">70</property>
    <property name="center">0</property>
    <property name="center_bias">986</property>
    <property name="use_profile">0</property>
    <property name="kdenlive_info"/>
   </filter>
   <filter out="1442" in="363" id="filter5">
    <property name="track">0</property>
    <property name="background">colour:0x00000000</property>
    <property name="mlt_type">filter</property>
    <property name="mlt_service">affine</property>
    <property name="kdenlive_id">pan_zoom</property>
    <property name="tag">affine</property>
    <property name="kdenlive_ix">2</property>
    <property name="transition.geometry">0/594:864x486:100</property>
    <property name="transition.distort">0</property>
    <property name="kdenlive_info"/>
   </filter>
  </entry>
  <entry out="666" in="622" producer="2_playlist4">
   <filter id="filter6">
    <property name="track">0</property>
    <property name="mlt_type">filter</property>
    <property name="mlt_service">crop</property>
    <property name="kdenlive_id">crop</property>
    <property name="tag">crop</property>
    <property name="kdenlive_ix">1</property>
    <property name="top">68</property>
    <property name="left">70</property>
    <property name="bottom">9</property>
    <property name="right">70</property>
    <property name="center">0</property>
    <property name="center_bias">986</property>
    <property name="use_profile">0</property>
    <property name="kdenlive_info"/>
   </filter>
   <filter out="1442" in="622" id="filter7">
    <property name="track">0</property>
    <property name="background">colour:0x00000000</property>
    <property name="mlt_type">filter</property>
    <property name="mlt_service">affine</property>
    <property name="kdenlive_id">pan_zoom</property>
    <property name="tag">affine</property>
    <property name="kdenlive_ix">2</property>
    <property name="transition.geometry">0/594:864x486:100</property>
    <property name="transition.distort">0</property>
    <property name="kdenlive_info"/>
   </filter>
  </entry>
  <entry out="1688" in="651" producer="2_playlist4">
   <filter id="filter8">
    <property name="track">0</property>
    <property name="mlt_type">filter</property>
    <property name="mlt_service">crop</property>
    <property name="kdenlive_id">crop</property>
    <property name="tag">crop</property>
    <property name="kdenlive_ix">1</property>
    <property name="top">68</property>
    <property name="left">70</property>
    <property name="bottom">9</property>
    <property name="right">70</property>
    <property name="center">0</property>
    <property name="center_bias">986</property>
    <property name="use_profile">0</property>
    <property name="kdenlive_info"/>
   </filter>
   <filter out="1442" in="651" id="filter9">
    <property name="track">0</property>
    <property name="background">colour:0x00000000</property>
    <property name="mlt_type">filter</property>
    <property name="mlt_service">affine</property>
    <property name="kdenlive_id">pan_zoom</property>
    <property name="tag">affine</property>
    <property name="kdenlive_ix">2</property>
    <property name="transition.geometry">0/594:864x486:100</property>
    <property name="transition.distort">0</property>
    <property name="kdenlive_info"/>
   </filter>
  </entry>
 </playlist>
 <tractor out="1712" in="0" id="maintractor" title="Anonymous Submission" global_feed="1">
  <track producer="black_track"/>
  <track hide="video" producer="playlist0"/>
  <track hide="video" producer="playlist1"/>
  <track producer="playlist2"/>
  <track producer="playlist3"/>
  <track producer="playlist4"/>
  <transition id="transition0">
   <property name="a_track">1</property>
   <property name="b_track">2</property>
   <property name="mlt_type">transition</property>
   <property name="mlt_service">mix</property>
   <property name="always_active">1</property>
   <property name="combine">1</property>
   <property name="internal_added">237</property>
  </transition>
  <transition id="transition1">
   <property name="a_track">1</property>
   <property name="b_track">3</property>
   <property name="mlt_type">transition</property>
   <property name="mlt_service">mix</property>
   <property name="always_active">1</property>
   <property name="combine">1</property>
   <property name="internal_added">237</property>
  </transition>
  <transition id="transition2">
   <property name="a_track">1</property>
   <property name="b_track">4</property>
   <property name="mlt_type">transition</property>
   <property name="mlt_service">mix</property>
   <property name="always_active">1</property>
   <property name="combine">1</property>
   <property name="internal_added">237</property>
  </transition>
  <transition id="transition3">
   <property name="a_track">1</property>
   <property name="b_track">5</property>
   <property name="mlt_type">transition</property>
   <property name="mlt_service">mix</property>
   <property name="always_active">1</property>
   <property name="combine">1</property>
   <property name="internal_added">237</property>
  </transition>
  <transition out="1466" id="transition4">
   <property name="a_track">4</property>
   <property name="b_track">5</property>
   <property name="start">0/0:100%x100%</property>
   <property name="factory">loader</property>
   <property name="aligned">1</property>
   <property name="progressive">1</property>
   <property name="mlt_type">transition</property>
   <property name="mlt_service">composite</property>
   <property name="automatic">1</property>
   <property name="kdenlive_id">composite</property>
   <property name="force_track">0</property>
   <property name="deinterlace">0</property>
   <property name="distort">0</property>
   <property name="fill">1</property>
   <property name="geometry">0%/0%:100%x100%:100</property>
   <property name="luma_invert">0</property>
   <property name="operator">over</property>
   <property name="softness">0</property>
  </transition>
 </tractor>
</mlt>
